<?xml version="1.0" encoding="utf-8"?>
<!-- Generator: Adobe Illustrator 27.3.1, SVG Export Plug-In . SVG Version: 6.00 Build 0)  -->
<svg version="1.1" id="Layer_1" xmlns="http://www.w3.org/2000/svg" xmlns:xlink="http://www.w3.org/1999/xlink" x="0px" y="0px"
	 width="55.8px" height="33.9px" viewBox="0 0 55.8 33.9" style="enable-background:new 0 0 55.8 33.9;" xml:space="preserve">
<style type="text/css">
	.st0{fill:none;stroke:#0000FF;stroke-miterlimit:10;}
</style>
<path class="st0" d="M6.5,0.2c-4.7,11.6-6,15-6,15c0.1,0,10.7-13.3,11-13c0.3,0.3-2.8,9.8-2,10c0.9,0.3,5.6-8.1,6-8
	c1.1,0.2,0,6.2,2,7c1.6,0.6,4.3-2.2,6-4c2.9-3,3.3-3.9,5-4c2.2-0.2,4.1,1.8,4,2c-0.2,0.2-2.1-3-5-2c-3.2,1.1-6.3,7.7-4,9
	c1.8,1,5.6-2.6,6-3c3.6-3.4,5-7,5-7c0,0-3.9,4.8-2,8c0.8,1.3,2.5,2.2,4,2c4.3-0.5,6.7-9.1,7-9c0.3,0.1-3.5,7.9-2,9
	c0.7,0.5,2.4-0.6,3-1c4.8-3.2,5.8-9.1,6-9c0.3,0.1-3.2,10.2-6,19c-0.9,2.7-2.2,6.9-6,10c-0.9,0.7-3.4,2.8-5,2c-1.7-0.8-1.6-4.5-1-7
	c1.1-4.2,4.3-6.5,9-10c3.3-2.5,8.2-6.2,14-11"/>
</svg>
