<?xml version="1.0" encoding="utf-8"?>
<!-- Generator: Adobe Illustrator 27.3.1, SVG Export Plug-In . SVG Version: 6.00 Build 0)  -->
<svg version="1.1" id="Layer_1" xmlns="http://www.w3.org/2000/svg" xmlns:xlink="http://www.w3.org/1999/xlink" x="0px" y="0px"
	 width="626.4px" height="478px" viewBox="0 0 626.4 478" style="enable-background:new 0 0 626.4 478;" xml:space="preserve">
<style type="text/css">
	.st0{fill:none;stroke:#0000FF;stroke-miterlimit:10;}
	.st1{fill:none;stroke:#0000FF;stroke-width:2;stroke-miterlimit:10;}
</style>
<g id="Layer_2_00000070085014015111424130000008919318416085021583_">
	<path class="st0" d="M26,65.6C39.1,27.1,50.9,2.2,58.5,40.1c3.5,26.5-50.6,45.2-37,18c4-8,48-11,47-12c-3.8-3.8-4.6-4-6,0
		c-8,22,12-9,17,2c0.1,0.3-3.7-5.6-6-2c-9,14,7.7,6.6,8-1c-4.6,20,10.4,3.8,10-1c0,0-2,6-5,15c6.6-19.8,3.9-8.1,16-12"/>
	<path class="st0" d="M126.5,24.1c-19.6,59.3-16.3,35.1,5,5c2.1-0.7-10.3,39.6-8,35c0.6,0.1,22.8-44.4,28-44
		c1.4,8.5-15.6,49.7-13,44c6-13,11.3-16.8,12-17c-14,13.3,7.2,13.6,1-1c1.8,4.3,7.9,2,9-1c-8,22,3,0,4,0s-3.6,22,4.1,1.6
		c0.2-0.6,1-0.6,1.3-0.1c1.5,2.8-3.3,20.5,8.7,1.5"/>
	<path class="st0" d="M179.5,54.1c0.2,2.2-2.4,7.1-4,8"/>
	<path class="st0" d="M33.5,109.1c-16.2,36.6-5.2,59.1,5,18c0.5,0.2-0.8,24.8,3,25c5.1,0.3,14.2-42.8,13-43c-0.9-0.1,2,7,3,2
		c0.3-1.6-4.7,25.4-7,32c-0.1,0.2,4.8-11.9,7-11c0.9,0.4-1.6,9.4-1,10c5,0.8,10.7-11.6,10-11c0.1,0.1-5.7,12.1,0,10
		c9.9-3.3,22.9-28.6,20-28c-4,0.9-13.4,30.1-12,29c9-7,4-3,11-8c-0.2-8.9-10.1,4.9-5,8c4.3,3,11.4-4.5,11-8"/>
	<path class="st0" d="M109.5,130.1c-4.3,9.2-5.5,12.7-5,13c1.7,0.7,14-22.2,9-7c-3.4,12.5,1.9-2.4,5-3c1.1,3.9,1.2,10.8,7,4
		c7.3-7.5,1.5-5.4,2,2c3.1,7.2,8.2-7,9-7c-11.3,47.8-36.3,28,6,1"/>
	<path class="st0" d="M156.5,134.1c-1.7-10-16,8-5,8c10,0,6.2-15.2,17-8c-9-6-11,5-7,8c3.6,2.7,9.4-10.4,9-10c-0.1,0.1-5.6,10-3,10
		c4,0,12.7-11.1,13-11c0.4,0.2-4.9,12-5,12c1.1-1.7,6-18,11-8c2,4,5-6,12,0c-11.7-10.1-12.5,23,0,2c6.6-10.4,12-22,13-26
		c1.2-4.9-15.4,32-15,32c1,0,14.5-5.9,13-12c3,12,2,16-8,11c-0.9-0.4,12,1,16-6"/>
	<path class="st0" d="M229.5,129.1c-11.3,26.3-3.7,9.9,3.6,2.3c0.4-0.4,1.1,0,0.9,0.5c-2.2,9-1.7,10.4,3.6,2.5
		c0.3-0.4,1-0.3,1.1,0.2c1.6,13.3,7.3-1.3,12.8-2.6c2.2-0.2,4.1,1.8,4,2c-0.2,0.2-2.2-2.9-5-2c-7.8,4.2-4.5,13.7,2,6
		c9.4-9.3,1-6,3,1c2.3,8.2,10-4,11-7c-0.1,0.3-4,8-2,9c4.5,2.3,9.4-10.5,9-10c-5.8,44-41.6,35.3,5,3"/>
	<path class="st0" d="M287.5,131.1c1.2-0.6,13-12,14-16c2.6-11.3-3.8-0.8-6,4c-18,44.7-5.2,4.8,2,12c3,3-17,2-3,10
		c3.3,1.9,13.3-5.1,16-7c0.8-0.5-3-3-5,1c-4,10,11.9,0.3,13.6-0.9c0.1-0.1,0.2-0.2,0.3-0.3c0.5-0.9-2.9-1.8-3.9,0.2
		c-6,13,15.3,1.1,13-2c-2-2-8.2,25.3-9,25c-3.1,2.7,8.9-32,16-23.5c0.8,0.9,1,2.2,0.6,3.3c-2.2,6.7-11.8,3.6-10.6,4.2
		c6,3,14.3-3.4,15-4"/>
	<path class="st0" d="M347.5,136.1c8.5,3.9,12.8-6.8,5-4c-3,2-6,10,0,10c4.7,0.6,10.6-10.5,11-12c0.1,0.1-1.5,13.9-1,13
		c8-15,15-10,15-10s-13,10-5,11c7,0.9,7-6.5,5.4-10.3c-0.1-0.1,0.1-0.3,0.2-0.2c7,5,10.4-7.5,12.4-15.5c4.3-17.2-6.6,17.6-9,26
		c-2,7,12-16,9-13c0,0,0.2,13.6,1,13c1.4-1,6.7-11.9,8-13c2.2-1.9,0.5,8.6,2,7c2-2.1,6.1-7.1,6-7c-6,7-7,17-2,10
		c3.9-5.4,8.9-11,9-11c0.1,0.1-6.4,14.8-6,15c-0.3,1.2,7.4-14,11-14c4,0-2.4,9,1,10c1.9,0.4,10-11,15-8c-6-3-11,7-8,8c7,2,10-11,9-8
		c-1.5,4.4-10,31-14,30c-7-3,12-16,22-28"/>
	<path class="st0" d="M445.5,140.1c0.7,1.8-0.9,6.3-2,7"/>
	<path class="st0" d="M458.5,130.1c-14.7,36.1,6.7-14.8,3.4,8.6c0,0.3,0.3,0.4,0.4,0.2c2.7-5.1,10.7-11,7.2,1.2c-0.9,3,9.2-7.9,9-8
		s-5,10-1,10c5.1,0,7.5-10.2,8-10s-2.3,7.6-6,17c-13,33-15.6,3.9,12-15"/>
	<path class="st0" d="M495.5,138.1c5.1-1.3,18-28,13-24c-2.3,1.9-12,24.8-11,36c0,4,4-16,12-17c2.2-0.3-12,5-4,10
		c3.9,2.5,5.2-5.7,5.1-9.2c0-0.5,0.6-0.7,0.9-0.3c2.3,2.7,4.4,0.1,6-2.5c0.7,0.3-3,10.5-2,11c1.1,0.5,7.4-10.8,9-10
		c-0.8,4.6,7.5,3.9,9,2c-10.5-9.4-10,19,5,3"/>
	<path class="st0" d="M557.5,133.1c-4.6-5.4-12.6,2.6-10,7c4.3,5.2,13-12.9,12-10c-6,18,6,9,10,0c0,0-5.7,10.6-5,11
		c0.3-0.3,4-12,10-9c3.2,1.6-3,9,0,9c4.5,0,7-14.2,15-8c-8.3-6.5-13,11-5,8c4.7-1.8,12.9-26.5,11-27s-6.4,22.1-6,31"/>
	<path class="st0" d="M45.6,195.6c-17.6-2.3-9.7,22.1,0,0.5c0.1-0.2,0.4-0.1,0.4,0.1c-0.9,3.7-1.9,9.8,1.7,8.4c3.8-1.5,10-12,9-9
		c-0.3,1-10.1,25-10,25c2.1-1.9,7-26,15-26c7.5,0-3.6,12.4-7,11c1.5,1.8,17-10,13-10c-1,0-7.4,25.2-8,25c-0.5-0.1,6-25,12-25
		c5,0,2,10-6,10c1.4,1.8,17.1-5.3,16-11c1.1-0.8-2,9-5,14c13-22,3-7.9,15-9c11-1-2-9.1-2,1c0.2,10.6,7.9,1.3,14-4c5-4,3.9,2.2,4,2
		c1-3-0.8-3.5-3-3c-2.5,0.6-7.1,10.8-3,10c5-1,13.1-12,13-12c-0.3-0.1-4,10.9-2,12c5.6,0.1,10.7-16.4,17-8c-3.7-5.3-13.3,1.9-10,7
		c5.8,2,12.5-10.2,12-11c-0.7,0.1-4.4,8.9,0,11c10.8-0.8,13.1-21.5,16-25c-1.9,2.8-14,36.7-16,46c4-19,15-28,16-32
		c-0.2,0.7-5,8.7-2,11c1.4,1.8,10-11.1,13-8c-2.4-2.4-9,10-2,10c9,0-4-15,6-8c1.9,1.4,4-5,4-5s-6.1,13-6,13c-1.1,0.5,7.3-11.6,11-11
		c0.6,0.6-4.3,13.5,1,10c27-18-26.3-17-42-19"/>
	<path class="st0" d="M185.6,203.6c2.5-4,20-23,18-25s-23,39-21,40s5-5,5-13c0-1.6,3.5-1.5,6-2c5-1,2-5,9-7c0.6-0.2-3.8,1.1-5,4
		c-2.7,12,13.6,3.5,6-4c2,2,6.2,4.9,8,1c4.1-12.6-4.8,9.4-4,10c11.6-18.6,1.9-8,16-10"/>
	<path class="st0" d="M233.6,195.6c-2.6,1.9-4.5,9.8-3,10c4.2,0.6,9.8-10.1,10-10c-1.6,1.8-9.9,40.5-19,28c0.6-11.9,16.5-17.6,26-27
		c0,0-4.4,2.3-5,6c-1.8,6,3.9,7,6,1c2.3-6.9-3.7-7.8,2-5c4,2,4.9-2.1,5-2c0.2,0.1-6,10-1,11c3.1,0.6,9.3-12.1,9-12
		c-3.8,4.4,0.2,13.9,7,6"/>
	<path class="st0" d="M275.5,204.9c11-8,12.1-11.9,11-10c-1.5,2.7-4.4,9.8-2,11c1.8,0.9,16.2-11.4,16-12c-0.2-0.7,2.2,10,1,12
		c-1,1.6-13.2-7.2-9-3c3,3,11-4.9,14-6"/>
	<path class="st0" d="M321.5,196.9c-0.5-0.3-2.5-1.5-5-1c-2.4,0.5-4.6,2.5-5,5c-0.2,1.2-0.2,3.4,1,4c1.8,0.9,5.4-2.9,7-5
		c2.6-3.3,4-7,4-7s-3.5,5-2,9c0.1,0.2,1.1,2.7,3,3c1.3,0.2,2.8-0.6,7-6c4.7-6,7.3-10.7,8-12c1.8-3.4,4.7-8.5,4-9
		c-0.6-0.4-4.3,3.1-7,7c-5.2,7.5-6.2,15.2-7,22c-0.4,3.5-0.8,6.7,0,7c2,0.6,9.7-17.1,10-17c0.1,0.1-2.3,16.7-1,14c1-2,4.5-12.2,5-12
		c0.4,0.2-0.8,16.2,2,12c2-3,2.5-15.8,4-16c0.7-0.1,1,3.4,3,4c2.4,0.7,2.6-3.6,6-3c1.2,0.2,4,1,4,1s0-1-4-1c-3.3,0-6.8,6.5-5,8
		c0.8,0.7,2.3,0.2,3,0c6.1-2,9-11,9-11s-5.9,13.3,1,11c3-1,7.7-9.2,8-9c0.2,0.1-4,6.4-2,9c0.5,0.6,1.3,1,2,1c4.3,0.1,7.6-12.1,8-12
		c0.3,0.1-7,16-9,21c-2.8,7.1-10,13.2-11,12s0.6-4.3,2-7c2.8-5.3,6.1-9,8-11c2-2.1,19.2-13.6,19-14c-0.2-0.4,3.2,8.6,2,10
		c-1.2,1.4-9.9-4.1-10-2c-0.1,1.9,7.9-1.2,13-5"/>
	<path class="st0" d="M411.5,197.9c0-2.2-0.6-2.8-1-3c-1.5-0.7-4.7,1.9-6,5c-0.8,1.8-1.4,5,0,6c1.7,1.2,5.5-1.6,6-2
		c2.2-1.6,2.2-2.8,5-5c1.8-1.4,3.1-1.9,3-2c-0.1-0.2-3.5,0.5-5,3c-1.4,2.5-0.7,6.4,1,7c1,0.4,2.3-0.5,3-1c2.5-1.8,3-4.7,3-5
		c0.5-3.2-1.3-5.8-1-6c0.3-0.1,1,1.7,3,3c0.8,0.5,2,1.3,3,1c1.9-0.6,2.4-4.9,2-5c-0.7-0.2-5.2,13.9-5,14c0.1,0.1,3.4-6.6,8-11
		c0.3-0.3,1.4-1.3,2-1c1.3,0.6-0.8,5.8,1,7c1.1,0.8,12.1-9.8,12-10c-0.2-0.3,0.9,12.2,0,14c-0.8,1.7-9-9.9-8-5c0.7,3.3,6.8-1.7,11-5
		c9.1-7.2,11.1-19,11-19s-8.9,13.2-12,31c-1.4,8.2-1.2,15-1,15c0.2,0,0.3-6.2,3-14c0.4-1.2,7-15,10-15c2,0,2.3,0.1,4,1
		c0.6,0.3,1.1,0.9,1,1c-0.2,0.2-2.6-2-5-2c-2,0-4.1,4.1-4,7c0,0.9,0.1,2.5,1,3c1.6,0.8,4.6-2.3,6-4c2.8-3.4,3.8-7.1,4-7
		c0.2,0.1-1.6,3.2-1,7c0.1,0.9,0.6,3.6,2,4c3.3,1,9.7-11.2,10-11c0.4,0.2-7.2,13.9-7,14c0.1,0.1,2.7-4.2,7-9c3.4-3.8,4.5-4.3,5-4
		c1.4,0.7-1.1,6.7,1,8c0.7,0.4,1.6,0.1,2,0c5.7-1.9,14.7-23.7,14-24c-0.6-0.2-7.7,15.6-12,31c-2.6,9.2-3,14-3,14s-0.1-9.5,6-16
		c4.1-4.3,10.5-7,13-8c4.8-2,8.8-2.7,10-6c0.1-0.2,0.8-2.2,0-4c-2.4-5.5-17.3-4.2-31-3c-11.4,1-13.7,2.2-22,2
		c-7.2-0.1-13.2-1.2-17-2"/>
	<path class="st0" d="M45.7,278.6c-4.7-23.9,7.5-38.6,10-33c0.9,2.1-13,39-20,49"/>
	<path class="st0" d="M64.7,269.6c-0.3,0.2-4.3,13.8-3,14c2.9,0.3,6.6-11.2,7-11c0.3,0.1-1.3,10.4,0,11c2,1,5.7-14.9,7-15
		c0.4,0,0.1,2.4,2,3c3,1,7-4,6-3c-0.7,0.7-6,13-2,13c4.5,0,22-30,20-31c-2.7-1.3-18,39-15,40s27-39,24-39s-11.5,31.7-13,45"/>
	<path class="st0" d="M127.7,252.6c-2.9,5.6-6.6,13.8-10,24c-3.5,10.7-5.4,19.9-5,20c0.3,0.1,1.8-6.4,6-15c3.8-7.8,8.5-14.3,9-14
		c0.7,0.4-4.7,13.1-5,13c-0.2-0.1,5.2-13.8,8-11c1,1,1,3,3,3c1.9,0,5.7-4.2,6-4c0.3,0.3-5.9,10-3,10c4,0,8.6-10.1,9-10
		s-16.8,32-18,31c-1.6-1.3,4.3-12.7,9-17c7.3-6.6,10.5-7.5,12-12c0.4-1.2,1.3-4,0-6c-1.9-2.8-6.9-2.2-12-2c-5.1,0.2-12.2-0.1-21-2"
		/>
	<path class="st0" d="M169.7,252.6c-11.2,33.8-11,44-13,44c-0.9,0,5-21,12-25c5.8-3.3,6.2-0.2,6-1c-0.1-0.4-1.7-0.5-3,0
		c-3.5,1.4-5,8-3,9s5-1,6-4s0.4-4.9,1-5c0.5-0.1,0.8,0.3,2,1c1.7,1,3.8,0.1,4,0c2.8-1.2,0.3-5.4-1-8c-1.2-2.4-4.4-2.8-6-3
		c-5.1-0.7-7.3,2-13,2c-2.6,0-4.6-0.5-6-1"/>
	<path class="st0" d="M193.7,267.6c-4,10-5.3,13.9-5,14c0.6,0.3,7.5-14.6,9-14c1.2,0.5-1.9,10.7-1,11c0.9,0.3,4.4-9.4,6-9
		c1.5,0.4-0.1,8.3,2,9c1.1,0.4,8-10,11-10c1.9,0,4.3,2.7,4,3c-0.3,0.4-1-3-4-3c-3.6,0-7.9,8.1-6,10c1.1,1.1,3.6,0.1,4,0
		c5.8-2.2,8.1-10.9,8-11c-0.1,0-3.4,4.7-2,8c0.1,0.3,0.8,1.7,2,2c2,0.5,4.2-2.3,7-6c7.4-9.5,11.9-15.1,13-22c0.3-1.8,0.1-2,0-2
		c-1-0.4-6.3,11.5-7,13c-6.2,13.9-7.9,22-8,22s1-8.5,7-13c1.3-1,3.7-2.4,4-2c0.3,0.3-0.7,1.9-2,3c-2.5,2.2-4.6,1.7-5,3
		c-0.5,1.6,2.1,4.8,5,5c2,0.2,15-6,15-7c0-1.3-1.8-3.8-3-3c-3,2-5,9.5-3,11s11.3-6.5,12-8"/>
	<path class="st0" d="M263.7,274.6c2.9-0.2,8.3-2.1,8-3c-1-3-4.1-2.1-5-1c-1.1,1.3-2.2,4-1,6s4,2.5,6,2c5.4-1.3,7.6-10.2,8-10
		c0.5,0.2-3.8,9.8-2,11c0.9,0.6,8-11.1,9-11c0.7,0.1,0.3,2.7,2,4c1.7,1.2,8,0,8-1c0-1.2-2-3-4-2s-4.5,6-3,8c1.2,1.6,4.1,1.1,5,1
		c4.7-0.7,9.2-10.9,9-11c-0.8-0.2-5.1,14-5,14s5-13,8-13c0.8,0,1,4,5,4c1.9,0,2.9-3.1,3-3s-2.6,3.5-2,7c0.1,0.6,0.3,1.7,1,2
		c1.4,0.5,3.7-2.3,5-4c2.7-3.4,3.8-6.1,4-6c0.3,0.1-1.8,5.5-5,13c-2.9,6.8-4.1,9.3-6,12c-1.3,1.9-5.3,7.7-7,7c-1.3-0.5-1.2-4.7,0-8
		c1.5-4.3,4.5-6.4,9-10c3.1-2.5,7.6-6.2,13-11"/>
	<path class="st0" d="M344.7,271.6c-1.3-1.8-6-3-9,1c-2.5,3.3-2.2,9,0,9c8,0,23.2-32,22-32c-5,0-16,37-16,35s10-22,17-14
		c1.5,1.7-2-2.3-4-2c-2.6,0.3-5.3,4.9-4,8c0.1,0.3,0.7,1.8,2,2c1.8,0.3,3.6-2.1,5-4c2.6-3.5,2.9-5.1,3-5c0.2,0.1-5,9-2,9
		c5.1,0,10-9,10-9s-4.1,4.3-3,7c0.5,1.1,1.8,2,3,2c4.4,0.1,7.8-10.1,8-10s-3.9,11.8-10,21c-2,3-8.8,11.8-10,11s0.4-5.7,2-9
		c1.8-3.6,4.1-6.4,8-10c3.3-3,8.2-7.1,15-11"/>
	<path class="st0" d="M404.7,245.6c-10.5,31.3-13,39-13,39c0.1,0,2.8-9.2,9-20c2.9-5.1,7.8-12.6,9-12c0.9,0.4-0.7,4.8-4,17
		c-2.9,10.9-4.8,17.7-4,18c0.9,0.3,4.5-8.8,12-22c0.7-1.3,13-23,15-22c1.2,0.6-2,8.3-7,26c-5.4,19.3-6,26-6,26s3-23,10-25
		c3-0.9,3.4,0.7,3,0c-0.3-0.5-2.5-0.2-4,1c-2.7,2.2-3.1,7.6-1,9c1.3,0.8,3.7,0.4,5-1c2.7-3-0.1-9.6,1-10c0.5-0.2,4.9,3.4,6,2
		c4-5,10-20,9-19s-9.7,16.8-14,34c-1.7,6.8-2.1,11-2,11s0.3-9.4,6-18c0.4-0.5,3.6-4,10-11c4.5-4.9,7-7.5,9-12c1.5-3.4,2.7-7.6,2-8
		c-0.9-0.5-5,5.6-7,9c-7.4,12.3-9.3,22.9-9,23s2.6-9.2,8-11c0.5-0.2,1.4-0.5,2,0c1.5,1.2-1.8,5.9,0,8c0.7,0.9,1.9,0.9,3,1
		c4.8,0.3,11.3-5.1,11-6c-1-3-4.3-1.4-5,0c-0.1,0.3-2,7,6,6c6.8-0.8,8-12,8-12s-4.9,15-5,15s4.2-13.4,7-13c1,0.1,1,2,3,3
		c1,0.5,2.2,0.7,5,0c3.6-0.8,9.3-2.8,9-4c-0.2-0.9,1.3,11.5,0,13c-0.9,0.9-7.6-8.5-7-6c2,8,16-4,16-8c0-5.8-33.8-4.8-44-4
		c-6.4,0.5-16,0.6-28-2"/>
	<path class="st0" d="M484.7,251.6c0.1,0.5,0.4,1.7,0,3c-0.5,1.7-1.6,2.7-2,3"/>
	<path class="st0" d="M513.7,270.6c-9-3-10.8,8.1-8,9c6,2,20-32,18-29c-4,6-12.6,27.4-11,29c1,1,7.3-15.7,13-10c1,1,0-1-3-1
		c-4,0-7,10-3,10c5,0,6.9-10,7-10s-3,10,3,10c3,0,7.8-9.1,8-9c0.1,0.1-3.4,4.6-2,8c0.1,0.3,0.8,1.8,2,2c3.5,0.5,7.6-11.2,8-11
		c0.3,0.1-14.6,33.7-20,31c-6-3,19.9-23.9,25-29"/>
	<path class="st0" d="M339.4,332.5c-6.2,11.3-18,31.5-7,31c22-1,27.6-32.1,28-32c0.3,0.1-21.6,56-31,52c-7-3,14.3-18.2,26-26
		c1.7-1.1,4.4-0.9,4-1c-6-2-9,11-5,11c6.1,0,5.6-11.8,6-12c0.5-0.3,1.8,2.8,4,3c2.1,0.2,1.8-2.2,2-2c0.3,0.3-2.9,9.8-2,10
		c2.2,0.6,9.6-11.2,10-11c0.2,0.1-2.5,7.8-1,8c3.6,0.4,9.4-9.2,10-9s-4.8,13-5,13c-0.1,0,6.4-14.1,8-12c3,4,5,4,8,2"/>
	<path class="st0" d="M415.4,375.5c1-23.2,6.7-42.2,15-43c22-2,15.2,21.2,11,33c-5,14-35,22-36,9c-1.4-18.1,37-7,46-18
		c0.3-0.4-3.2,8.3-2,9s9.9-11,10-11c0.1,0.1-5,10-2,10c5,0,18.4-25.8,18-26c-0.6-0.3-18.1,46-18,46c0.2,0.1,12-28,17-30
		c0.2-0.1-7,10-2,10c0.8,0,26-27,22-26s-7.9,10.5-11,16c-0.9,1.7-12.3,23-9,23c6,0,5-15,6-14c3,3,11.3-7.4,12-7s-5,9-1,9
		s9-11.6,9-10c0,4-1.6,6.8,0,8c1.3,1.1,22-25,19-27c-3.4-2.3-18,32-14,38"/>
	<path class="st0" d="M457.4,348.5c5.1,0.4,10.8,0.4,17,0c3.2-0.2,6.2-0.6,9-1"/>
	<path class="st0" d="M552.4,347.5c5-5,10-18-1-18c-12,0-20,12-18,19c1.5,5.2,12.4,17.1,9,25c-3,7-14,8-15,4c-1.7-6.9,26-27,29-20
		c0.2,0.5,1,0-2-1c-3.9-1.3-5,10-1,10c6.1,0,6-9,4-11c-0.1-0.1,2.9,3.1,5,3c1.2,0,5-5,5-5s-6.7,15.1-7,15c-0.2-0.1,9.6-13.8,11-13
		c0.5,0.3-2,8,2,8c0.9,0,2.8,0.1,9-6"/>
	<path class="st0" d="M582.4,363.5c0.1,0.5,0.4,1.7,0,3c-0.5,1.7-1.6,2.7-2,3"/>
	<path class="st0" d="M190.5,143.1"/>
	<path class="st0" d="M514.4,452.5"/>
	<path class="st0" d="M504.4,421.5c11-3,11-7,15-16c1.2-2.7-12,61-8,49c0.9-2.7,4.4-50.4,14-47c6.2,2.2,14,11.3,12,18
		c-4.1,13.7-23.2,9.8-22,5c0.6-2.6,13.1,21,19,22c6,1,16.7-6,13-13c-2.7-5.2-6.5-3.3-9,1c-4,7-0.9,11,1,11c6,0,14-11,5-15
		c-13,2,5.9,10.4,14.8,1.2c0.1-0.1,0.3-0.1,0.4,0.1c2.6,4.1-1.1,11-3.2,13.7c-1.1,1.5-5-8-5-5c0,1,17-3,22-9c1-1,1,9.2,1,14
		c0,3.1-8-7-8-5s12,1,14-4"/>
	<path class="st0" d="M561.7,250.6c1,4.6,0.4,16.4-0.2,20.6"/>
	<path class="st0" d="M83.7,121.7"/>
	<line class="st1" x1="560.7" y1="276.6" x2="560.6" y2="278"/>
	<line class="st1" x1="503.6" y1="206.8" x2="503.5" y2="208.6"/>
	<line class="st1" x1="289.2" y1="190.1" x2="288.6" y2="191.8"/>
</g>
</svg>
