<?xml version="1.0" encoding="UTF-8"?>
<svg id="Layer_2" data-name="Layer 2" xmlns="http://www.w3.org/2000/svg" viewBox="0 0 71.06 34.58">
  <defs>
    <style>
      .cls-1 {
        fill: none;
        stroke: blue;
        stroke-miterlimit: 10;
      }
    </style>
  </defs>
  <g id="Layer_1-2" data-name="Layer 1">
    <path class="cls-1" d="m9.63,23.96c-1.72-9.97-16,8-5,8,10.05,0,6.18-15.21,17-8-9-6-11,5-7,8,3.58,2.68,9.36-10.36,9-10-.14.14-5.56,10-3,10,4,0,12.7-11.14,13-11,.4.18-4.88,12.05-5,12,1.15-1.73,6-18,11-8,2,4,5-6,12,0-11.73-10.06-12.46,22.97,0,2,6.61-10.37,12-22,13-26,1.24-4.95-15.4,32-15,32,1,0,14.53-5.86,13-12,3,12,2,16-8,11-.89-.45,12,1,16-6"/>
  </g>
</svg>