<?xml version="1.0" encoding="utf-8"?>
<!-- Generator: Adobe Illustrator 27.3.1, SVG Export Plug-In . SVG Version: 6.00 Build 0)  -->
<svg version="1.1" id="Layer_1" xmlns="http://www.w3.org/2000/svg" xmlns:xlink="http://www.w3.org/1999/xlink" x="0px" y="0px"
	 width="793px" height="61px" viewBox="0 0 793 61" style="enable-background:new 0 0 793 61;" xml:space="preserve">
<style type="text/css">
	.st0{fill:none;stroke:#0000FF;stroke-miterlimit:10;}
	.st1{fill:#0000FF;}
</style>
<path class="st0" d="M5,38.4c11-8,12.1-11.9,11-10c-1.5,2.7-4.4,9.8-2,11c1.8,0.9,16.2-11.4,16-12c-0.2-0.7,2.2,10,1,12
	c-1,1.6-13.2-7.2-9-3c3,3,11-4.9,14-6"/>
<path class="st0" d="M51,30.4c-0.5-0.3-2.5-1.5-5-1c-2.4,0.5-4.6,2.5-5,5c-0.2,1.2-0.2,3.4,1,4c1.8,0.9,5.4-2.9,7-5c2.6-3.3,4-7,4-7
	c0,0-3.5,5-2,9c0.1,0.2,1.1,2.7,3,3c1.3,0.2,2.8-0.6,7-6c4.7-6,7.3-10.7,8-12c1.8-3.4,4.7-8.5,4-9c-0.6-0.4-4.3,3.1-7,7
	c-5.2,7.5-6.2,15.2-7,22c-0.4,3.5-0.8,6.7,0,7c2,0.6,9.7-17.1,10-17c0.1,0.1-2.3,16.7-1,14c1-2,4.5-12.2,5-12c0.4,0.2-0.8,16.2,2,12
	c2-3,2.5-15.8,4-16c0.7-0.1,1,3.4,3,4c2.4,0.7,2.6-3.6,6-3c1.2,0.2,4,1,4,1c0,0,0-1-4-1c-3.3,0-6.8,6.5-5,8c0.8,0.7,2.3,0.2,3,0
	c6.1-2,9-11,9-11c0,0-5.9,13.3,1,11c3-1,7.7-9.2,8-9c0.2,0.1-4,6.4-2,9c0.5,0.6,1.3,1,2,1c4.3,0.1,7.6-12.1,8-12c0.3,0.1-7,16-9,21
	c-2.8,7.1-10,13.2-11,12c-1-1.2,0.6-4.3,2-7c2.8-5.3,6.1-9,8-11c2-2.1,19.2-13.6,19-14c-0.2-0.4,3.2,8.6,2,10c-1.2,1.4-9.9-4.1-10-2
	c-0.1,1.9,7.9-1.2,13-5"/>
<path class="st0" d="M141,31.4c0-2.2-0.6-2.8-1-3c-1.5-0.7-4.7,1.9-6,5c-0.8,1.8-1.4,5,0,6c1.7,1.2,5.5-1.6,6-2c2.2-1.6,2.2-2.8,5-5
	c1.8-1.4,3.1-1.9,3-2c-0.1-0.2-3.5,0.5-5,3c-1.4,2.5-0.7,6.4,1,7c1,0.4,2.3-0.5,3-1c2.5-1.8,3-4.7,3-5c0.5-3.2-1.3-5.8-1-6
	c0.3-0.1,1,1.7,3,3c0.8,0.5,2,1.3,3,1c1.9-0.6,2.4-4.9,2-5c-0.7-0.2-5.2,13.9-5,14c0.1,0.1,3.4-6.6,8-11c0.3-0.3,1.4-1.3,2-1
	c1.3,0.6-0.8,5.8,1,7c1.1,0.8,12.1-9.8,12-10c-0.2-0.3,0.9,12.2,0,14c-0.8,1.7-9-9.9-8-5c0.7,3.3,6.8-1.7,11-5
	c9.1-7.2,11.1-19,11-19c-0.1,0-8.9,13.2-12,31c-1.4,8.2-1.2,15-1,15c0.2,0,0.3-6.2,3-14c0.4-1.2,7-15,10-15c2,0,2.3,0.1,4,1
	c0.6,0.3,1.1,0.9,1,1c-0.2,0.2-2.6-2-5-2c-2,0-4.1,4.1-4,7c0,0.9,0.1,2.5,1,3c1.6,0.8,4.6-2.3,6-4c2.8-3.4,3.8-7.1,4-7
	c0.2,0.1-1.6,3.2-1,7c0.1,0.9,0.6,3.6,2,4c3.3,1,9.7-11.2,10-11c0.4,0.2-7.2,13.9-7,14c0.1,0.1,2.7-4.2,7-9c3.4-3.8,4.5-4.3,5-4
	c1.4,0.7-1.1,6.7,1,8c0.7,0.4,1.6,0.1,2,0c5.7-1.9,14.7-23.7,14-24c-0.6-0.2-7.7,15.6-12,31c-2.6,9.2-3,14-3,14c0,0-0.1-9.5,6-16
	c4.1-4.3,10.5-7,13-8c4.8-2,8.8-2.7,10-6c0.1-0.2,0.8-2.2,0-4c-2.4-5.5-17.3-4.2-31-3c-11.4,1-13.7,2.2-22,2c-7.2-0.1-13.2-1.2-17-2
	"/>
<path class="st0" d="M267,38.4c-4.7-23.9,7.5-38.6,10-33c0.9,2.1-13,39-20,49"/>
<path class="st0" d="M286,29.4c-0.3,0.2-4.3,13.8-3,14c2.9,0.3,6.6-11.2,7-11c0.3,0.1-1.3,10.4,0,11c2,1,5.7-14.9,7-15
	c0.4,0,0.1,2.4,2,3c3,1,7-4,6-3c-0.7,0.7-6,13-2,13c4.5,0,22-30,20-31c-2.7-1.3-18,39-15,40c3,1,27-39,24-39s-11.5,31.7-13,45"/>
<path class="st0" d="M349,12.4c-2.9,5.6-6.6,13.8-10,24c-3.5,10.7-5.4,19.9-5,20c0.3,0.1,1.8-6.4,6-15c3.8-7.8,8.5-14.3,9-14
	c0.7,0.4-4.7,13.1-5,13c-0.2-0.1,5.2-13.8,8-11c1,1,1,3,3,3c1.9,0,5.7-4.2,6-4c0.3,0.3-5.9,10-3,10c4,0,8.6-10.1,9-10
	c0.4,0.1-16.8,32-18,31c-1.6-1.3,4.3-12.7,9-17c7.3-6.6,10.5-7.5,12-12c0.4-1.2,1.3-4,0-6c-1.9-2.8-6.9-2.2-12-2
	c-5.1,0.2-12.2-0.1-21-2"/>
<path class="st0" d="M391,12.4c-11.2,33.8-11,44-13,44c-0.9,0,5-21,12-25c5.8-3.3,6.2-0.2,6-1c-0.1-0.4-1.7-0.5-3,0
	c-3.5,1.4-5,8-3,9s5-1,6-4s0.4-4.9,1-5c0.5-0.1,0.8,0.3,2,1c1.7,1,3.8,0.1,4,0c2.8-1.2,0.3-5.4-1-8c-1.2-2.4-4.4-2.8-6-3
	c-5.1-0.7-7.3,2-13,2c-2.6,0-4.6-0.5-6-1"/>
<path class="st0" d="M415,27.4c-4,10-5.3,13.9-5,14c0.6,0.3,7.5-14.6,9-14c1.2,0.5-1.9,10.7-1,11c0.9,0.3,4.4-9.4,6-9
	c1.5,0.4-0.1,8.3,2,9c1.1,0.4,8-10,11-10c1.9,0,4.3,2.7,4,3c-0.3,0.4-1-3-4-3c-3.6,0-7.9,8.1-6,10c1.1,1.1,3.6,0.1,4,0
	c5.8-2.2,8.1-10.9,8-11c-0.1,0-3.4,4.7-2,8c0.1,0.3,0.8,1.7,2,2c2,0.5,4.2-2.3,7-6c7.4-9.5,11.9-15.1,13-22c0.3-1.8,0.1-2,0-2
	c-1-0.4-6.3,11.5-7,13c-6.2,13.9-7.9,22-8,22c-0.1,0,1-8.5,7-13c1.3-1,3.7-2.4,4-2c0.3,0.3-0.7,1.9-2,3c-2.5,2.2-4.6,1.7-5,3
	c-0.5,1.6,2.1,4.8,5,5c2,0.2,15-6,15-7c0-1.3-1.8-3.8-3-3c-3,2-5,9.5-3,11c2,1.5,11.3-6.5,12-8"/>
<path class="st0" d="M485,34.4c2.9-0.2,8.3-2.1,8-3c-1-3-4.1-2.1-5-1c-1.1,1.3-2.2,4-1,6c1.2,2,4,2.5,6,2c5.4-1.3,7.6-10.2,8-10
	c0.5,0.2-3.8,9.8-2,11c0.9,0.6,8-11.1,9-11c0.7,0.1,0.3,2.7,2,4c1.7,1.2,8,0,8-1c0-1.2-2-3-4-2s-4.5,6-3,8c1.2,1.6,4.1,1.1,5,1
	c4.7-0.7,9.2-10.9,9-11c-0.8-0.2-5.1,14-5,14c0.1,0,5-13,8-13c0.8,0,1,4,5,4c1.9,0,2.9-3.1,3-3c0.1,0.1-2.6,3.5-2,7
	c0.1,0.6,0.3,1.7,1,2c1.4,0.5,3.7-2.3,5-4c2.7-3.4,3.8-6.1,4-6c0.3,0.1-1.8,5.5-5,13c-2.9,6.8-4.1,9.3-6,12c-1.3,1.9-5.3,7.7-7,7
	c-1.3-0.5-1.2-4.7,0-8c1.5-4.3,4.5-6.4,9-10c3.1-2.5,7.6-6.2,13-11"/>
<path class="st0" d="M566,31.4c-1.3-1.8-6-3-9,1c-2.5,3.3-2.2,9,0,9c8,0,23.2-32,22-32c-5,0-16,37-16,35s10-22,17-14
	c1.5,1.7-2-2.3-4-2c-2.6,0.3-5.3,4.9-4,8c0.1,0.3,0.7,1.8,2,2c1.8,0.3,3.6-2.1,5-4c2.6-3.5,2.9-5.1,3-5c0.2,0.1-5,9-2,9
	c5.1,0,10-9,10-9c0,0-4.1,4.3-3,7c0.5,1.1,1.8,2,3,2c4.4,0.1,7.8-10.1,8-10c0.2,0.1-3.9,11.8-10,21c-2,3-8.8,11.8-10,11
	c-1.2-0.8,0.4-5.7,2-9c1.8-3.6,4.1-6.4,8-10c3.3-3,8.2-7.1,15-11"/>
<path class="st0" d="M626,5.4c-10.5,31.3-13,39-13,39c0.1,0,2.8-9.2,9-20c2.9-5.1,7.8-12.6,9-12c0.9,0.4-0.7,4.8-4,17
	c-2.9,10.9-4.8,17.7-4,18c0.9,0.3,4.5-8.8,12-22c0.7-1.3,13-23,15-22c1.2,0.6-2,8.3-7,26c-5.4,19.3-6,26-6,26c0,0,3-23,10-25
	c3-0.9,3.4,0.7,3,0c-0.3-0.5-2.5-0.2-4,1c-2.7,2.2-3.1,7.6-1,9c1.3,0.8,3.7,0.4,5-1c2.7-3-0.1-9.6,1-10c0.5-0.2,4.9,3.4,6,2
	c4-5,10-20,9-19c-1,1-9.7,16.8-14,34c-1.7,6.8-2.1,11-2,11c0.1,0,0.3-9.4,6-18c0.4-0.5,3.6-4,10-11c4.5-4.9,7-7.5,9-12
	c1.5-3.4,2.7-7.6,2-8c-0.9-0.5-5,5.6-7,9c-7.4,12.3-9.3,22.9-9,23c0.3,0.1,2.6-9.2,8-11c0.5-0.2,1.4-0.5,2,0c1.5,1.2-1.8,5.9,0,8
	c0.7,0.9,1.9,0.9,3,1c4.8,0.3,11.3-5.1,11-6c-1-3-4.3-1.4-5,0c-0.1,0.3-2,7,6,6c6.8-0.8,8-12,8-12c0,0-4.9,15-5,15
	c-0.1,0,4.2-13.4,7-13c1,0.1,1,2,3,3c1,0.5,2.2,0.7,5,0c3.6-0.8,9.3-2.8,9-4c-0.2-0.9,1.3,11.5,0,13c-0.9,0.9-7.6-8.5-7-6
	c2,8,16-4,16-8c0-5.8-33.8-4.8-44-4c-6.4,0.5-16,0.6-28-2"/>
<path class="st0" d="M706,11.4c0.1,0.5,0.4,1.7,0,3c-0.5,1.7-1.6,2.7-2,3"/>
<path class="st0" d="M735,30.4c-9-3-10.8,8.1-8,9c6,2,20-32,18-29c-4,6-12.6,27.4-11,29c1,1,7.3-15.7,13-10c1,1,0-1-3-1
	c-4,0-7,10-3,10c5,0,6.9-10,7-10c0.1,0-3,10,3,10c3,0,7.8-9.1,8-9c0.1,0.1-3.4,4.6-2,8c0.1,0.3,0.8,1.8,2,2c3.5,0.5,7.6-11.2,8-11
	c0.3,0.1-14.6,33.7-20,31c-6-3,19.9-23.9,25-29"/>
<path class="st0" d="M783,10.4c1,4.6-0.4,19.8-1,24"/>
<circle class="st0" cx="781.5" cy="38.9" r="0.5"/>
<circle class="st1" cx="232" cy="40.4" r="1.4"/>
<circle class="st1" cx="19" cy="21.4" r="1.4"/>
</svg>
