<?xml version="1.0" encoding="UTF-8"?>
<svg id="Layer_1" data-name="Layer 1" xmlns="http://www.w3.org/2000/svg" viewBox="0 0 161.22 52.33">
  <defs>
    <style>
      .cls-1 {
        fill: none;
        stroke: blue;
        stroke-miterlimit: 10;
      }
    </style>
  </defs>
  <path class="cls-1" d="m7.21,46C20.33,7.51,32.12-17.33,39.71,20.5c3.46,26.51-50.63,45.2-37.01,18,4.01-8,48-11,47-12-3.81-3.81-4.55-3.99-6,0-8,22,12-9,17,2,.12.26-3.7-5.57-6-2-9,14,7.71,6.57,8-1-4.56,19.98,10.44,3.76,10-1,.04.01-2,6-5,15,6.6-19.81,3.91-8.06,16-12"/>
  <path class="cls-1" d="m107.71,4.5c-19.61,59.27-16.34,35.1,5,5,2.15-.74-10.3,39.6-8,35,.61.07,22.76-44.43,28-44,1.44,8.48-15.62,49.67-13,44,6-13,11.3-16.83,12-17-14.02,13.29,7.22,13.63,1-1,1.82,4.29,7.9,2.03,9-1-8,22,3,0,4,0s-3.56,22.02,4.05,1.59c.21-.56.99-.64,1.27-.11,1.54,2.81-3.33,20.53,8.67,1.53"/>
  <path class="cls-1" d="m160.71,34.5c.23,2.16-2.37,7.08-4,8"/>
</svg>