<?xml version="1.0" encoding="utf-8"?>
<!-- Generator: Adobe Illustrator 27.3.1, SVG Export Plug-In . SVG Version: 6.00 Build 0)  -->
<svg version="1.1" id="Layer_1" xmlns="http://www.w3.org/2000/svg" xmlns:xlink="http://www.w3.org/1999/xlink" x="0px" y="0px"
	 width="1000px" height="250px" viewBox="0 0 1000 250" style="enable-background:new 0 0 1000 250;" xml:space="preserve">
<style type="text/css">
	.st0{fill:none;stroke:#0000FF;stroke-miterlimit:10;}
</style>
<path class="st0" d="M104.3,92.5c-16.2,36.6-5.2,59.1,5,18c0.5,0.2-0.8,24.8,3,25c5.1,0.3,14.2-42.8,13-43c-0.9-0.1,2,7,3,2
	c0.3-1.6-4.7,25.4-7,32c-0.1,0.2,4.8-11.9,7-11c0.9,0.4-1.6,9.4-1,10c5,0.8,10.7-11.6,10-11c0.1,0.1-5.7,12.1,0,10
	c9.9-3.3,22.9-28.6,20-28c-4,0.9-13.4,30.1-12,29c9-7,4-3,11-8c-0.2-8.9-10.1,4.9-5,8c4.3,3,11.4-4.5,11-8"/>
<path class="st0" d="M180.3,113.5c-4.3,9.2-5.5,12.7-5,13c1.7,0.7,14-22.2,9-7c-3.4,12.5,1.9-2.4,5-3c1.1,3.9,1.2,10.8,7,4
	c7.3-7.5,1.5-5.4,2,2c3.1,7.2,8.2-7,9-7c-11.3,47.8-36.3,28,6,1"/>
<path class="st0" d="M227.3,117.5c-1.7-10-16,8-5,8c10,0,6.2-15.2,17-8c-9-6-11,5-7,8c3.6,2.7,9.4-10.4,9-10c-0.1,0.1-5.6,10-3,10
	c4,0,12.7-11.1,13-11c0.4,0.2-4.9,12-5,12c1.1-1.7,6-18,11-8c2,4,5-6,12,0c-11.7-10.1-12.5,23,0,2c6.6-10.4,12-22,13-26
	c1.2-4.9-15.4,32-15,32c1,0,14.5-5.9,13-12c3,12,2,16-8,11c-0.9-0.4,12,1,16-6"/>
<path class="st0" d="M300.3,112.5c-11.3,26.3-3.7,9.9,3.6,2.3c0.4-0.4,1.1,0,0.9,0.5c-2.2,9-1.7,10.4,3.6,2.5c0.3-0.4,1-0.3,1.1,0.2
	c1.6,13.3,7.3-1.3,12.8-2.6c2.2-0.2,4.1,1.8,4,2c-0.2,0.2-2.2-2.9-5-2c-7.8,4.2-4.5,13.7,2,6c9.4-9.3,1-6,3,1c2.3,8.2,10-4,11-7
	c-0.1,0.3-4,8-2,9c4.5,2.3,9.4-10.5,9-10c-5.8,44-22.8,19,5,3"/>
<path class="st0" d="M358.3,114.5c1.2-0.6,13-12,14-16c2.6-11.3-3.8-0.8-6,4c-18,44.7-5.2,4.8,2,12c3,3-17,2-3,10
	c3.3,1.9,13.3-5.1,16-7c0.8-0.5-3-3-5,1c-4,10,11.9,0.3,13.6-0.9c0.1-0.1,0.2-0.2,0.3-0.3c0.5-0.9-2.9-1.8-3.9,0.2
	c-6,13,15.3,1.1,13-2c-2-2-8.2,25.3-9,25c-3.1,2.7,8.9-32,16-23.5c0.8,0.9,1,2.2,0.6,3.3c-2.2,6.7-11.8,3.6-10.6,4.2
	c6,3,14.3-3.4,15-4"/>
<path class="st0" d="M418.3,119.5c8.5,3.9,12.8-6.8,5-4c-3,2-6,10,0,10c4.7,0.6,10.6-10.5,11-12c0.1,0.1-1.5,13.9-1,13
	c8-15,15-10,15-10s-13,10-5,11c7,0.9,7-6.5,5.4-10.3c-0.1-0.1,0.1-0.3,0.2-0.2c7,5,10.4-7.5,12.4-15.5c4.3-17.2-6.6,17.6-9,26
	c-2,7,12-16,9-13c0,0,0.2,13.6,1,13c1.4-1,6.7-11.9,8-13c2.2-1.9,0.5,8.6,2,7c2-2.1,6.1-7.1,6-7c-6,7-7,17-2,10c3.9-5.4,8.9-11,9-11
	c0.1,0.1-6.4,14.8-6,15c-0.3,1.2,7.4-14,11-14c4,0-2.4,9,1,10c1.9,0.4,10-11,15-8c-6-3-11,7-8,8c7,2,10-11,9-8c-1.5,4.4-10,31-14,30
	c-7-3,12-16,22-28"/>
<path class="st0" d="M516.3,123.5c0.7,1.8-0.9,6.3-2,7"/>
<path class="st0" d="M529.3,113.5c-14.7,36.1,6.7-14.8,3.4,8.6c0,0.3,0.3,0.4,0.4,0.2c2.7-5.1,10.7-11,7.2,1.2c-0.9,3,9.2-7.9,9-8
	c-0.2-0.1-5,10-1,10c5.1,0,7.5-10.2,8-10c0.5,0.2-2.3,7.6-6,17c-13,33-15.6,3.9,12-15"/>
<path class="st0" d="M566.3,121.5c5.1-1.3,18-28,13-24c-2.3,1.9-12,24.8-11,36c0,4,4-16,12-17c2.2-0.3-12,5-4,10
	c3.9,2.5,5.2-5.7,5.1-9.2c0-0.5,0.6-0.7,0.9-0.3c2.3,2.7,4.4,0.1,6-2.5c0.7,0.3-3,10.5-2,11c1.1,0.5,7.4-10.8,9-10
	c-0.8,4.6,7.5,3.9,9,2c-10.5-9.4-10,19,5,3"/>
<path class="st0" d="M628.3,116.5c-4.6-5.4-12.6,2.6-10,7c4.3,5.2,13-12.9,12-10c-6,18,6,9,10,0c0,0-5.7,10.6-5,11
	c0.3-0.3,4-12,10-9c3.2,1.6-3,9,0,9c4.5,0,7-14.2,15-8c-8.3-6.5-13,11-5,8c4.7-1.8,12.9-26.5,11-27s-6.4,22.1-6,31"/>
<path class="st0" d="M687.3,115.5c-17.6-2.3-9.7,22.1,0,0.5c0.1-0.2,0.4-0.1,0.4,0.1c-0.9,3.7-1.9,9.8,1.7,8.4c3.8-1.5,10-12,9-9
	c-0.3,1-10.1,25-10,25c2.1-1.9,7-26,15-26c7.5,0-3.6,12.4-7,11c1.5,1.8,17-10,13-10c-1,0-7.4,25.2-8,25c-0.5-0.1,6-25,12-25
	c5,0,2,10-6,10c1.4,1.8,17.1-5.3,16-11c1.1-0.8-2,9-5,14c13-22,3-7.9,15-9c11-1-2-9.1-2,1c0.2,10.6,7.9,1.3,14-4c5-4,3.9,2.2,4,2
	c1-3-0.8-3.5-3-3c-2.5,0.6-7.1,10.8-3,10c5-1,13.1-12,13-12c-0.3-0.1-4,10.9-2,12c5.6,0.1,10.7-16.4,17-8c-3.7-5.3-13.3,1.9-10,7
	c5.8,2,12.5-10.2,12-11c-0.7,0.1-4.4,8.9,0,11c10.8-0.8,13.1-21.5,16-25c-1.9,2.8-14,36.7-16,46c4-19,15-28,16-32
	c-0.2,0.7-5,8.7-2,11c1.4,1.8,10-11.1,13-8c-2.4-2.4-9,10-2,10c9,0-4-15,6-8c1.9,1.4,4-5,4-5c0,0-6.1,13-6,13
	c-1.1,0.5,7.3-11.6,11-11c0.6,0.6-4.3,13.5,1,10c27-18-26.3-17-42-19"/>
<path class="st0" d="M827.3,123.5c2.5-4,20-23,18-25s-23,39-21,40s5-5,5-13c0-1.6,3.5-1.5,6-2c5-1,2-5,9-7c0.6-0.2-3.8,1.1-5,4
	c-2.7,12,13.6,3.5,6-4c2,2,6.2,4.9,8,1c4.1-12.6-4.8,9.4-4,10c11.6-18.6,1.9-8,16-10"/>
<path class="st0" d="M875.3,115.5c-2.6,1.9-4.5,9.8-3,10c4.2,0.6,9.8-10.1,10-10c-1.6,1.8-9.9,40.5-19,28c0.6-11.9,16.5-17.6,26-27
	c0,0-4.4,2.3-5,6c-1.8,6,3.9,7,6,1c2.3-6.9-3.7-7.8,2-5c4,2,4.9-2.1,5-2c0.2,0.1-6,10-1,11c3.1,0.6,9.3-12.1,9-12
	c-3.8,4.4,0.2,13.9,7,6"/>
<path class="st0" d="M261.3,126.5"/>
<path class="st0" d="M154.4,105.1"/>
</svg>
