<?xml version="1.0" encoding="UTF-8"?>
<svg id="Layer_2" data-name="Layer 2" xmlns="http://www.w3.org/2000/svg" viewBox="0 0 55.52 27.39">
  <defs>
    <style>
      .cls-1 {
        fill: none;
        stroke: blue;
        stroke-miterlimit: 10;
      }
    </style>
  </defs>
  <g id="Layer_1-2" data-name="Layer 1">
    <path class="cls-1" d="m6.27.2c-11.35,26.26-3.68,9.88,3.61,2.33.39-.4,1.06-.03.92.51-2.24,8.98-1.75,10.37,3.58,2.49.3-.44.99-.28,1.05.25,1.62,13.27,7.31-1.28,12.84-2.58,2.21-.17,4.14,1.84,4,2-.19.21-2.15-2.95-5-2-7.82,4.2-4.53,13.73,2,6,9.36-9.34,1-6,3,1,2.35,8.22,10-4,11-7-.09.27-4,8-2,9,4.53,2.26,9.44-10.52,9-10-5.81,43.96-22.77,19.01,5,3"/>
  </g>
</svg>